<?xml version="1.0" encoding="UTF-8" standalone="no"?> <!-- Created with Vectornator for iOS (http://vectornator.io/) --><!DOCTYPE svg PUBLIC "-//W3C//DTD SVG 1.1//EN" "http://www.w3.org/Graphics/SVG/1.1/DTD/svg11.dtd">
<svg height="100%" style="fill-rule:nonzero;clip-rule:evenodd;stroke-linecap:round;stroke-linejoin:round;" xmlns:xlink="http://www.w3.org/1999/xlink" xmlns="http://www.w3.org/2000/svg" xml:space="preserve" width="100%" xmlns:vectornator="http://vectornator.io" version="1.1" viewBox="0 0 70 40">
<metadata>
<vectornator:setting key="SnapToGuides" value="1"/>
<vectornator:setting key="GuidesVisible" value="1"/>
<vectornator:setting key="SnapToEdges" value="0"/>
<vectornator:setting key="RulersVisible" value="1"/>
<vectornator:setting key="SnapToPoints" value="0"/>
<vectornator:setting key="DisplayWhiteBackground" value="0"/>
<vectornator:setting key="SnapToGrid" value="0"/>
<vectornator:setting key="Units" value="Points"/>
<vectornator:setting key="OutlineMode" value="0"/>
<vectornator:setting key="DynamicGuides" value="0"/>
<vectornator:setting key="doHistoryDisabled" value="0"/>
<vectornator:setting key="CMYKEnabledKey" value="0"/>
<vectornator:setting key="IsolateActiveLayer" value="0"/>
<vectornator:setting key="DimensionsVisible" value="1"/>
<vectornator:setting key="TimeLapseWatermarkDisabled" value="0"/>
<vectornator:setting key="PencilOnly" value="0"/>
</metadata>
<defs/>
<g id="Layer 3" vectornator:layerName="Layer 3">
<path d="M-1.16568-1.89785L72.609-1.89785C72.8972-1.89785+73.1307-1.68509+73.1307-1.42263L73.1307+41.6103C73.1307+41.8728+72.8972+42.0855+72.609+42.0855L-1.16568+42.0855C-1.45381+42.0855-1.68738+41.8728-1.68738+41.6103L-1.68738-1.42263C-1.68738-1.68509-1.45381-1.89785-1.16568-1.89785Z" opacity="1" fill="#e7e7e7"/>
</g>
<g id="filled outline" vectornator:layerName="filled outline">
<path d="M42.5259+20.6864L45.4183+20.6864L45.4183+20.6864L45.4183+22.3423L45.4183+22.3423L42.5259+22.3423L42.5259+22.3423L42.5259+20.6864L42.5259+20.6864Z" opacity="1" fill="#b9b9b9"/>
<path d="M45.6127+20.7603L48.5051+20.7603L48.5051+20.7603L48.5051+21.4227L48.5051+21.4227L45.6127+21.4227L45.6127+21.4227L45.6127+20.7603L45.6127+20.7603Z" opacity="1" fill="#9c9c9c"/>
<path d="M32.0408+22.3423L28.4253+22.3423C27.6265+22.3423+26.979+21.7492+26.979+21.0176L26.979+13.5198C26.9789+13.0057+27.1096+12.4986+27.3608+12.0388L29.1484+8.76365L29.1484+3.46466C29.1484+3.28175+29.3102+3.13347+29.5099+3.13347L30.9561+3.13347C31.1558+3.13347+31.3177+3.28175+31.3177+3.46466L31.3177+8.76365L33.1052+12.0388C33.3564+12.4986+33.4872+13.0057+33.487+13.5198L33.487+21.0176C33.487+21.7492+32.8395+22.3423+32.0408+22.3423Z" opacity="1" fill="#6b9777"/>
<path d="M31.3177+7.77009L29.1484+7.77009L29.1484+8.76365L27.3608+12.0388C27.1096+12.4986+26.9789+13.0057+26.979+13.5198L26.979+21.0176C26.979+21.7492+27.6265+22.3423+28.4253+22.3423L32.0408+22.3423C32.8395+22.3423+33.487+21.7492+33.487+21.0176L33.487+13.5198C33.4872+13.0057+33.3564+12.4986+33.1052+12.0388L31.3177+8.76365L31.3177+7.77009Z" opacity="1" fill="#85bc94"/>
<path d="M31.3177+5.12059L29.1484+5.12059L29.1484+3.46466C29.1484+3.28175+29.3102+3.13347+29.5099+3.13347L30.9561+3.13347C31.1558+3.13347+31.3177+3.28175+31.3177+3.46466L31.3177+5.12059Z" opacity="1" fill="#ea9d2d"/>
<path d="M29.1484+5.12059L31.3177+5.12059L31.3177+5.12059L31.3177+6.44534L31.3177+6.44534L29.1484+6.44534L29.1484+6.44534L29.1484+5.12059L29.1484+5.12059Z" opacity="1" fill="#b9b9b9"/>
<path d="M26.979+13.7315L33.487+13.7315L33.487+13.7315L33.487+20.3552L33.487+20.3552L26.979+20.3552L26.979+20.3552L26.979+13.7315L26.979+13.7315Z" opacity="1" fill="#e4e4e2"/>
<path d="M44.2364+8.5709C44.1456+8.31782+43.8531+8.17537+43.5733+8.24799C43.5492+7.99105+43.3145+7.79371+43.033+7.79371C42.7514+7.79371+42.5167+7.99105+42.4926+8.24799C42.2182+8.18911+41.9403+8.33259+41.8532+8.57813C41.7661+8.82366+41.8988+9.0894+42.1586+9.18955C42.016+9.4101+42.0801+9.69376+42.3064+9.84445C42.5327+9.99513+42.8471+9.96337+43.0321+9.77112C43.2166+9.96528+43.5324+9.99818+43.7598+9.84692C43.9872+9.69566+44.0508+9.41035+43.9063+9.18955C44.1798+9.09797+44.3256+8.82485+44.2364+8.5709Z" opacity="1" fill="#eac88f"/>
<path d="M41.4145+4.39198C41.3237+4.1389+41.0312+3.99645+40.7514+4.06907C40.7273+3.81213+40.4926+3.61479+40.211+3.61479C39.9295+3.61479+39.6948+3.81213+39.6707+4.06907C39.3908+3.99574+39.0979+4.13858+39.008+4.39216C38.918+4.64575+39.0635+4.91902+39.337+5.01031C39.1885+5.23141+39.2509+5.51993+39.4802+5.67249C39.7095+5.82505+40.0283+5.79021+40.2119+5.59253C40.3965+5.78669+40.7123+5.81959+40.9397+5.66833C41.1671+5.51707+41.2307+5.23176+41.0862+5.01097C41.3592+4.91872+41.504+4.64557+41.4145+4.39198Z" opacity="1" fill="#fbb540"/>
<path d="M39.3044+14.6939L39.2036+14.4471C39.0132+13.9823+38.9907+13.4737+39.1396+12.9962L39.6335+11.4131L35.2948+11.4131L35.7887+12.9962C35.9376+13.4736+35.9153+13.9822+35.7251+14.4471L35.6238+14.6939C35.1672+15.8095+34.9333+16.9912+34.9332+18.1826L34.9332+21.0176C34.9332+21.7492+35.5807+22.3423+36.3795+22.3423L38.5488+22.3423C39.3475+22.3423+39.995+21.7492+39.995+21.0176L39.995+18.1826C39.995+16.9912+39.7611+15.8095+39.3044+14.6939Z" opacity="1" fill="#a8dcfc"/>
<path d="M38.9104+14.0626L36.0179+14.0626C35.8182+14.0626+35.6564+13.9144+35.6564+13.7315C35.6564+13.5485+35.8182+13.4003+36.0179+13.4003L38.9104+13.4003C39.11+13.4003+39.2719+13.5485+39.2719+13.7315C39.2719+13.9144+39.11+14.0626+38.9104+14.0626Z" opacity="1" fill="#916f56"/>
<path d="M41.4412+17.0433L46.503+17.0433L46.503+17.0433L46.503+20.024C46.503+20.5727+46.0174+21.0176+45.4183+21.0176L42.5259+21.0176C41.9269+21.0176+41.4412+20.5727+41.4412+20.024L41.4412+17.0433L41.4412+17.0433Z" opacity="1" fill="#f2bd5b"/>
<path d="M42.8875+18.6993L41.4412+18.6993C41.2416+18.6993+41.0797+18.551+41.0797+18.3681C41.0797+18.1852+41.2416+18.0369+41.4412+18.0369L42.8875+18.0369C43.0871+18.0369+43.249+18.1852+43.249+18.3681C43.249+18.551+43.0871+18.6993+42.8875+18.6993Z" opacity="1" fill="#b9b9b9"/>
<path d="M42.1643+20.024L41.4412+20.024C41.2416+20.024+41.0797+19.8757+41.0797+19.6928C41.0797+19.5099+41.2416+19.3616+41.4412+19.3616L42.1643+19.3616C42.364+19.3616+42.5259+19.5099+42.5259+19.6928C42.5259+19.8757+42.364+20.024+42.1643+20.024Z" opacity="1" fill="#b9b9b9"/>
<path d="M44.6952+18.6993L44.3337+18.6993C44.134+18.6993+43.9721+18.551+43.9721+18.3681C43.9721+18.1852+44.134+18.0369+44.3337+18.0369L44.6952+18.0369C44.8949+18.0369+45.0568+18.1852+45.0568+18.3681C45.0568+18.551+44.8949+18.6993+44.6952+18.6993Z" opacity="1" fill="#b9b9b9"/>
<path d="M43.9721+20.024L43.6106+20.024C43.4109+20.024+43.249+19.8757+43.249+19.6928C43.249+19.5099+43.4109+19.3616+43.6106+19.3616L43.9721+19.3616C44.1718+19.3616+44.3337+19.5099+44.3337+19.6928C44.3337+19.8757+44.1718+20.024+43.9721+20.024Z" opacity="1" fill="#b9b9b9"/>
<path d="M42.8875+16.0498C42.6878+16.0498+42.5259+15.9015+42.5259+15.7186C42.5259+15.5897+42.4677+15.5324+42.288+15.3874C41.985+15.2033+41.8029+14.8924+41.8029+14.5594C41.8029+14.2264+41.985+13.9155+42.288+13.7315C42.4688+13.5871+42.5259+13.5298+42.5259+13.4003C42.5259+13.2174+42.6878+13.0691+42.8875+13.0691C43.0871+13.0691+43.249+13.2174+43.249+13.4003C43.2383+13.7308+43.0586+14.0374+42.7638+14.2282C42.583+14.3726+42.5259+14.4299+42.5259+14.5594C42.5259+14.6889+42.5841+14.7455+42.7638+14.8906C43.0586+15.0814+43.2383+15.3881+43.249+15.7186C43.249+15.9015+43.0871+16.0498+42.8875+16.0498Z" opacity="1" fill="#aedee2"/>
<path d="M45.0568+16.0498C44.8571+16.0498+44.6952+15.9015+44.6952+15.7186C44.6952+15.5897+44.637+15.5324+44.4573+15.3874C44.1544+15.2033+43.9722+14.8924+43.9722+14.5594C43.9722+14.2264+44.1544+13.9155+44.4573+13.7315C44.6381+13.5871+44.6952+13.5298+44.6952+13.4003C44.6952+13.2174+44.8571+13.0691+45.0568+13.0691C45.2565+13.0691+45.4183+13.2174+45.4183+13.4003C45.4077+13.7308+45.2279+14.0374+44.9331+14.2282C44.7524+14.3726+44.6952+14.4299+44.6952+14.5594C44.6952+14.6889+44.7534+14.7455+44.9331+14.8906C45.2279+15.0814+45.4077+15.3881+45.4183+15.7186C45.4183+15.9015+45.2565+16.0498+45.0568+16.0498Z" opacity="1" fill="#aedee2"/>
<path d="M36.3795+10.4196C36.1798+10.4196+36.0179+10.2713+36.0179+10.0884C36.0179+9.95956+35.9597+9.90227+35.78+9.75721C35.477+9.57313+35.2949+9.26226+35.2949+8.92924C35.2949+8.59623+35.477+8.28536+35.78+8.10127C35.9608+7.95688+36.0179+7.89958+36.0179+7.77009C36.0179+7.58718+36.1798+7.4389+36.3795+7.4389C36.5791+7.4389+36.741+7.58718+36.741+7.77009C36.7303+8.10059+36.5506+8.40726+36.2558+8.59805C36.075+8.74245+36.0179+8.79975+36.0179+8.92924C36.0179+9.05874+36.0761+9.11537+36.2558+9.26043C36.5506+9.45122+36.7303+9.75789+36.741+10.0884C36.741+10.2713+36.5791+10.4196+36.3795+10.4196Z" opacity="1" fill="#aedee2"/>
<path d="M38.5488+10.4196C38.3491+10.4196+38.1872+10.2713+38.1872+10.0884C38.1872+9.95956+38.129+9.90227+37.9493+9.75721C37.6464+9.57313+37.4642+9.26226+37.4642+8.92924C37.4642+8.59623+37.6464+8.28536+37.9493+8.10127C38.1301+7.95688+38.1872+7.89958+38.1872+7.77009C38.1872+7.58718+38.3491+7.4389+38.5488+7.4389C38.7485+7.4389+38.9104+7.58718+38.9104+7.77009C38.8997+8.10059+38.72+8.40726+38.4251+8.59805C38.2444+8.74245+38.1872+8.79975+38.1872+8.92924C38.1872+9.05874+38.2455+9.11537+38.4251+9.26043C38.72+9.45122+38.8997+9.75789+38.9104+10.0884C38.9104+10.2713+38.7485+10.4196+38.5488+10.4196Z" opacity="1" fill="#aedee2"/>
<path d="M29.1484+16.381C29.1484+15.6493+29.7959+15.0562+30.5946+15.0562C31.3933+15.0562+32.0408+15.6493+32.0408+16.381C32.0408+17.1126+31.3933+17.7057+30.5946+17.7057C29.7959+17.7057+29.1484+17.1126+29.1484+16.381Z" opacity="1" fill="#e06661"/>
<path d="M32.0408+19.0304C32.0112+19.0306+31.9817+19.0272+31.953+19.0205L30.5067+18.6893C30.3788+18.6629+30.2764+18.5752+30.2393+18.4599C30.2022+18.3447+30.2362+18.2201+30.328+18.1343C30.4199+18.0485+30.5552+18.015+30.6817+18.0468L32.1279+18.378C32.3049+18.4186+32.4211+18.5736+32.3989+18.7395C32.3768+18.9053+32.2232+19.0301+32.0408+19.0304Z" opacity="1" fill="#8d7761"/>
<path d="M30.8589+17.6395C30.7681+17.3864+30.4756+17.2439+30.1958+17.3166C30.1717+17.0596+29.937+16.8623+29.6555+16.8623C29.3739+16.8623+29.1392+17.0596+29.1151+17.3166C28.8412+17.2587+28.5645+17.4022+28.4776+17.647C28.3906+17.8919+28.5224+18.157+28.781+18.2578C28.6369+18.4784+28.7004+18.7633+28.9273+18.9146C29.1543+19.0658+29.4697+19.0335+29.6545+18.84C29.8391+19.0342+30.1549+19.0671+30.3823+18.9158C30.6097+18.7646+30.6733+18.4792+30.5288+18.2584C30.8025+18.1669+30.9483+17.8935+30.8589+17.6395Z" opacity="1" fill="#f9adb1"/>
<path d="M37.1207+16.381C36.965+16.381+36.8267+16.2897+36.7775+16.1544C36.5195+15.4457+36.4878+14.6843+36.6861+13.9596L36.7696+13.6513C36.8179+13.4737+37.0143+13.3656+37.2082+13.4099C37.402+13.4541+37.52+13.634+37.4717+13.8116L37.3875+14.1203C37.2227+14.7228+37.2493+15.3559+37.4641+15.9451C37.4944+16.0285+37.4873+16.1195+37.4443+16.1981C37.4013+16.2767+37.326+16.3364+37.2349+16.3641C37.1981+16.3753+37.1595+16.381+37.1207+16.381Z" opacity="1" fill="#9c775c"/>
<path d="M38.5488+15.5139C38.4798+15.5139+38.4123+15.4958+38.3543+15.4616C37.7977+15.1341+37.3308+14.6938+36.9898+14.1746L36.8108+13.902C36.708+13.7452+36.7634+13.5417+36.9346+13.4475C37.1059+13.3533+37.328+13.404+37.4309+13.5609L37.6116+13.8338C37.8953+14.2653+38.2833+14.6314+38.7458+14.9039C38.8813+14.9834+38.9432+15.1353+38.8975+15.2767C38.8518+15.418+38.7097+15.5147+38.5488+15.5139Z" opacity="1" fill="#9c775c"/>
<path d="M31.6793+5.12059L31.6793+3.46466C31.6793+3.09884+31.3555+2.80228+30.9561+2.80228L29.5099+2.80228C29.1106+2.80228+28.7868+3.09884+28.7868+3.46466L28.7868+8.68549L27.0391+11.8901C26.7623+12.3958+26.618+12.9537+26.6175+13.5195L26.6175+21.0176C26.6187+21.9317+27.4273+22.6724+28.4253+22.6735L32.0408+22.6735C33.0387+22.6724+33.8474+21.9317+33.8486+21.0176L33.8486+13.5195C33.848+12.9538+33.7037+12.3961+33.427+11.8904L31.6793+8.68549L31.6793+5.12059ZM29.5099+3.46466L30.9561+3.46466L30.9561+4.7894L29.5099+4.7894L29.5099+3.46466ZM29.5099+5.45178L30.9561+5.45178L30.9561+6.11415L29.5099+6.11415L29.5099+5.45178ZM29.5099+6.77653L30.9561+6.77653L30.9561+7.4389L29.5099+7.4389L29.5099+6.77653ZM33.1255+21.0176C33.1255+21.5663+32.6399+22.0111+32.0408+22.0111L28.4253+22.0111C27.8262+22.0111+27.3406+21.5663+27.3406+21.0176L27.3406+20.6864L33.1255+20.6864L33.1255+21.0176ZM33.1255+20.024L27.3406+20.024L27.3406+14.0626L33.1255+14.0626L33.1255+20.024ZM32.7806+12.1871L32.7806+12.1871C32.9858+12.565+33.1008+12.9785+33.1179+13.4003L27.3482+13.4003C27.3654+12.9785+27.4804+12.565+27.6855+12.1871L29.472+8.91169C29.497+8.86571+29.51+8.81502+29.5099+8.76365L29.5099+8.10127L30.9561+8.10127L30.9561+8.76365C30.9561+8.81502+30.9691+8.86571+30.9941+8.91169L32.7806+12.1871Z" opacity="1" fill="#000000"/>
<path d="M43.8452+7.90488C43.6937+7.62036+43.3784+7.43986+43.0328+7.43986C42.6872+7.43986+42.3719+7.62036+42.2204+7.90488C41.8782+7.94901+41.5935+8.16798+41.4867+8.46902C41.38+8.77007+41.47+9.10051+41.7185+9.32037C41.6571+9.63226+41.7958+9.94887+42.0757+10.1352C42.3556+10.3216+42.7272+10.3448+43.0321+10.195C43.3371+10.3436+43.7079+10.3199+43.9875+10.134C44.2671+9.94805+44.4065+9.6324+44.3467+9.3207C44.5955+9.10082+44.6856+8.77019+44.5788+8.46899C44.4719+8.1678+44.1869+7.94881+43.8445+7.90488L43.8452+7.90488ZM43.7827+8.87857C43.6785+8.91353+43.5977+8.99035+43.5633+9.08695C43.529+9.18355+43.5449+9.28925+43.6066+9.37369C43.6482+9.44644+43.6253+9.53613+43.5528+9.58444C43.4803+9.63276+43.3801+9.6251+43.3173+9.56645C43.2463+9.49033+43.1425+9.4465+43.0332+9.4465C42.9238+9.4465+42.82+9.49033+42.749+9.56645C42.6862+9.6251+42.586+9.63276+42.5135+9.58444C42.441+9.53613+42.4181+9.44644+42.4597+9.37369C42.5214+9.2893+42.5374+9.18364+42.5031+9.08704C42.4689+8.99045+42.3881+8.9136+42.284+8.87857C42.2021+8.85168+42.1532+8.77471+42.1681+8.69617C42.183+8.61763+42.2574+8.56029+42.3444+8.5603C42.3615+8.56029+42.3785+8.56241+42.395+8.56659C42.5017+8.59418+42.6162+8.57544+42.7059+8.51575C42.7955+8.45606+42.8503+8.36201+42.8546+8.26057C42.8672+8.17897+42.9435+8.11834+43.0335+8.11834C43.1235+8.11834+43.1998+8.17897+43.2125+8.26057C43.2167+8.36209+43.2716+8.45621+43.3613+8.51591C43.451+8.57562+43.5657+8.5943+43.6724+8.56659C43.7654+8.5413+43.8635+8.58885+43.8929+8.67357L43.8929+8.67357C43.923+8.75799+43.8741+8.84897+43.7827+8.87857Z" opacity="1" fill="#000000"/>
<path d="M38.8966+5.14212C38.8365+5.45406+38.9759+5.7701+39.2557+5.95619C39.5356+6.14228+39.9068+6.16581+40.2119+6.01678C40.5171+6.16529+40.888+6.14146+41.1675+5.95536C41.447+5.76927+41.5862+5.45349+41.5262+5.14179C41.7746+4.9219+41.8644+4.59158+41.7577+4.29067C41.651+3.98975+41.3664+3.77085+41.0244+3.72662C40.8729+3.4421+40.5575+3.2616+40.2119+3.2616C39.8664+3.2616+39.551+3.4421+39.3995+3.72662C39.0573+3.77065+38.7724+3.98958+38.6656+4.29064C38.5588+4.5917+38.6487+4.92221+38.8973+5.14212L38.8966+5.14212ZM39.3518+4.49498C39.3813+4.41027+39.4794+4.36282+39.5724+4.38834C39.679+4.41569+39.7934+4.39679+39.8828+4.33706C39.9723+4.27732+40.027+4.18333+40.0312+4.08199C40.0439+4.00038+40.1202+3.93975+40.2101+3.93975C40.3001+3.93975+40.3764+4.00038+40.3891+4.08199C40.3933+4.18348+40.448+4.27762+40.5377+4.33739C40.6273+4.39715+40.7419+4.41593+40.8486+4.38834C40.9372+4.3742+41.0237+4.42182+41.0515+4.50011C41.0794+4.5784+41.0403+4.66356+40.9596+4.69998C40.855+4.7349+40.7738+4.81204+40.7394+4.90909C40.7051+5.00614+40.7215+5.11227+40.7839+5.19676C40.8359+5.26992+40.8162+5.36757+40.7391+5.41887C40.662+5.47017+40.5545+5.45712+40.4947+5.38918C40.4261+5.30935+40.3214+5.26274+40.2105+5.26274C40.0996+5.26274+39.9949+5.30935+39.9263+5.38918C39.8665+5.45712+39.759+5.47017+39.6819+5.41887C39.6048+5.36757+39.5851+5.26992+39.6371+5.19676C39.6995+5.11222+39.7158+5.00606+39.6814+4.909C39.647+4.81194+39.5657+4.73482+39.461+4.69998C39.37+4.66998+39.3216+4.57912+39.3518+4.49498Z" opacity="1" fill="#000000"/>
<path d="M35.2854+14.5776C34.8127+15.7302+34.5709+16.9514+34.5717+18.1826L34.5717+21.0176C34.5729+21.9317+35.3816+22.6724+36.3795+22.6735L38.5488+22.6735C39.5467+22.6724+40.3554+21.9317+40.3566+21.0176L40.3566+18.1826C40.3573+16.9514+40.1156+15.7302+39.6429+14.5776L39.6429+14.5776L39.542+14.3316C39.3798+13.9328+39.3607+13.497+39.4874+13.0876L39.9813+11.5046C40.0126+11.4045+39.9908+11.2969+39.9225+11.2138C39.8541+11.1307+39.7471+11.0819+39.6335+11.082L35.2948+11.082C35.1813+11.0819+35.0743+11.1307+35.006+11.2137C34.9376+11.2967+34.9158+11.4043+34.947+11.5042L35.4409+13.0873C35.5676+13.4966+35.5485+13.9322+35.3863+14.3309L35.2854+14.5776ZM39.154+11.7443L38.7925+12.9055C38.7439+13.0673+38.7123+13.233+38.6981+13.4003L36.2301+13.4003C36.2162+13.2329+36.1848+13.0671+36.1365+12.9051L35.7749+11.7443L39.154+11.7443ZM35.9626+14.8101L36.0635+14.5634C36.1276+14.4011+36.174+14.2333+36.2019+14.0626L36.6622+14.0626C36.4926+14.7566+36.5325+15.4797+36.7775+16.1544C36.8267+16.2897+36.965+16.381+37.1207+16.381C37.1594+16.381+37.1978+16.3753+37.2345+16.3641C37.3257+16.3365+37.4011+16.2768+37.4442+16.1982C37.4872+16.1196+37.4944+16.0286+37.4641+15.9451C37.3044+15.5065+37.2484+15.0419+37.3+14.5819C37.5956+14.9268+37.9519+15.2241+38.3543+15.4616C38.4631+15.5286+38.603+15.5364+38.7199+15.482C38.8368+15.4276+38.9123+15.3195+38.9174+15.1994C38.9224+15.0794+38.856+14.9663+38.744+14.9039C38.3682+14.6811+38.0413+14.3957+37.7801+14.0626L38.7263+14.0626C38.7543+14.2335+38.8006+14.4013+38.8648+14.5637L38.9657+14.8101C39.408+15.8883+39.6342+17.0308+39.6335+18.1826L39.6335+21.0176C39.6335+21.5663+39.1478+22.0111+38.5488+22.0111L36.3795+22.0111C35.7804+22.0111+35.2948+21.5663+35.2948+21.0176L35.2948+18.1826C35.2941+17.0308+35.5203+15.8883+35.9626+14.8101Z" opacity="1" fill="#000000"/>
<path d="M45.7799+22.3423L45.7799+21.3017C46.4165+21.1512+46.8621+20.6262+46.8646+20.024L46.8646+17.0433C46.8646+16.8604+46.7027+16.7121+46.503+16.7121L41.4412+16.7121C41.2416+16.7121+41.0797+16.8604+41.0797+17.0433L41.0797+20.024C41.0821+20.6262+41.5278+21.1512+42.1643+21.3017L42.1643+22.3423C42.1643+22.5252+42.3262+22.6735+42.5259+22.6735L45.4183+22.6735C45.618+22.6735+45.7799+22.5252+45.7799+22.3423ZM41.8028+20.024L42.1643+20.024C42.364+20.024+42.5259+19.8757+42.5259+19.6928C42.5259+19.5099+42.364+19.3616+42.1643+19.3616L41.8028+19.3616L41.8028+18.6993L42.8875+18.6993C43.0871+18.6993+43.249+18.551+43.249+18.3681C43.249+18.1852+43.0871+18.0369+42.8875+18.0369L41.8028+18.0369L41.8028+17.3745L46.1414+17.3745L46.1414+20.024C46.1414+20.3898+45.8177+20.6864+45.4183+20.6864L42.5259+20.6864C42.1265+20.6864+41.8028+20.3898+41.8028+20.024ZM45.0568+22.0111L42.8875+22.0111L42.8875+21.3488L45.0568+21.3488L45.0568+22.0111Z" opacity="1" fill="#000000"/>
<path d="M44.6952+18.0369L44.3337+18.0369C44.134+18.0369+43.9721+18.1852+43.9721+18.3681C43.9721+18.551+44.134+18.6993+44.3337+18.6993L44.6952+18.6993C44.8949+18.6993+45.0568+18.551+45.0568+18.3681C45.0568+18.1852+44.8949+18.0369+44.6952+18.0369Z" opacity="1" fill="#000000"/>
<path d="M43.9721+19.3616L43.6106+19.3616C43.4109+19.3616+43.249+19.5099+43.249+19.6928C43.249+19.8757+43.4109+20.024+43.6106+20.024L43.9721+20.024C44.1718+20.024+44.3337+19.8757+44.3337+19.6928C44.3337+19.5099+44.1718+19.3616+43.9721+19.3616Z" opacity="1" fill="#000000"/>
<path d="M42.7638+14.2282C43.0586+14.0374+43.2383+13.7308+43.249+13.4003C43.249+13.2174+43.0871+13.0691+42.8875+13.0691C42.6878+13.0691+42.5259+13.2174+42.5259+13.4003C42.5259+13.5291+42.4677+13.5864+42.288+13.7315C41.985+13.9155+41.8029+14.2264+41.8029+14.5594C41.8029+14.8924+41.985+15.2033+42.288+15.3874C42.4688+15.5318+42.5259+15.5891+42.5259+15.7186C42.5259+15.9015+42.6878+16.0498+42.8875+16.0498C43.0871+16.0498+43.249+15.9015+43.249+15.7186C43.2383+15.3881+43.0586+15.0814+42.7638+14.8906C42.583+14.7462+42.5259+14.6889+42.5259+14.5594C42.5259+14.4299+42.5841+14.3733+42.7638+14.2282Z" opacity="1" fill="#000000"/>
<path d="M44.9331+14.2282C45.2279+14.0374+45.4077+13.7308+45.4183+13.4003C45.4183+13.2174+45.2565+13.0691+45.0568+13.0691C44.8571+13.0691+44.6952+13.2174+44.6952+13.4003C44.6952+13.5291+44.637+13.5864+44.4573+13.7315C44.1544+13.9155+43.9722+14.2264+43.9722+14.5594C43.9722+14.8924+44.1544+15.2033+44.4573+15.3874C44.6381+15.5318+44.6952+15.5891+44.6952+15.7186C44.6952+15.9015+44.8571+16.0498+45.0568+16.0498C45.2565+16.0498+45.4183+15.9015+45.4183+15.7186C45.4077+15.3881+45.2279+15.0814+44.9331+14.8906C44.7524+14.7462+44.6952+14.6889+44.6952+14.5594C44.6952+14.4299+44.7534+14.3733+44.9331+14.2282Z" opacity="1" fill="#000000"/>
<path d="M36.2558+8.59805C36.5506+8.40726+36.7303+8.10059+36.741+7.77009C36.741+7.58718+36.5791+7.4389+36.3795+7.4389C36.1798+7.4389+36.0179+7.58718+36.0179+7.77009C36.0179+7.89892+35.9597+7.95621+35.78+8.10127C35.477+8.28536+35.2949+8.59623+35.2949+8.92924C35.2949+9.26226+35.477+9.57313+35.78+9.75721C35.9608+9.90161+36.0179+9.9589+36.0179+10.0884C36.0179+10.2713+36.1798+10.4196+36.3795+10.4196C36.5791+10.4196+36.741+10.2713+36.741+10.0884C36.7303+9.75789+36.5506+9.45122+36.2558+9.26043C36.075+9.11603+36.0179+9.05874+36.0179+8.92924C36.0179+8.79975+36.0761+8.74311+36.2558+8.59805Z" opacity="1" fill="#000000"/>
<path d="M36.5386+17.7302L38.4389+17.7302C38.6885+17.7302+38.8909+17.9326+38.8909+18.1822L38.8909+19.8729C38.8909+20.1225+38.6885+20.3248+38.4389+20.3248L36.5386+20.3248C36.289+20.3248+36.0866+20.1225+36.0866+19.8729L36.0866+18.1822C36.0866+17.9326+36.289+17.7302+36.5386+17.7302Z" opacity="1" fill="#bf1f1f"/>
<path d="M38.1872+7.77009C38.1872+7.89892+38.129+7.95621+37.9493+8.10127C37.6464+8.28536+37.4642+8.59623+37.4642+8.92924C37.4642+9.26226+37.6464+9.57313+37.9493+9.75721C38.1301+9.90161+38.1872+9.9589+38.1872+10.0884C38.1872+10.2713+38.3491+10.4196+38.5488+10.4196C38.7485+10.4196+38.9104+10.2713+38.9104+10.0884C38.8997+9.75789+38.72+9.45122+38.4251+9.26043C38.2444+9.11603+38.1872+9.05874+38.1872+8.92924C38.1872+8.79975+38.2455+8.74311+38.4251+8.59805C38.72+8.40726+38.8997+8.10059+38.9104+7.77009C38.9104+7.58718+38.7485+7.4389+38.5488+7.4389C38.3491+7.4389+38.1872+7.58718+38.1872+7.77009Z" opacity="1" fill="#000000"/>
<path d="M28.6971+19.2023C28.9767+19.3907+29.3495+19.4153+29.6556+19.2656C29.7862+19.3302+29.9321+19.3643+30.0805+19.3649C30.472+19.3642+30.8179+19.1312+30.9352+18.789L31.9533+19.0208C31.9819+19.0274+32.0113+19.0306+32.0408+19.0304C32.2232+19.0301+32.3768+18.9053+32.3989+18.7395C32.4211+18.5736+32.3049+18.4186+32.1279+18.378L31.1474+18.1535C31.1845+18.0833+31.2107+18.0087+31.2251+17.9319C32.1592+17.617+32.6411+16.671+32.3046+15.813C31.9682+14.955+30.9392+14.5061+29.9999+14.8076C29.0607+15.1091+28.5626+16.0481+28.8844+16.9108C28.8707+16.932+28.8544+16.9513+28.8429+16.9734C28.4997+17.0161+28.2135+17.2351+28.1065+17.5368C27.9996+17.8385+28.0907+18.1697+28.341+18.3889C28.2788+18.7003+28.4173+19.0167+28.6971+19.2023ZM30.5946+15.3874C31.1034+15.3869+31.5442+15.7104+31.6546+16.1654C31.765+16.6204+31.5153+17.0845+31.0541+17.2814C31.0155+17.2368+30.9719+17.1959+30.924+17.1596C30.916+17.1533+30.9066+17.149+30.8979+17.1427C30.8474+17.107+30.7929+17.0763+30.7352+17.0513C30.7179+17.0437+30.6991+17.0364+30.6824+17.0294C30.6141+17.0032+30.5424+16.9848+30.4691+16.9748C30.4373+16.9163+30.3978+16.8617+30.3513+16.8122C30.3382+16.7979+30.3267+16.7837+30.3129+16.7701C30.272+16.7315+30.2272+16.6964+30.1792+16.6654C30.1527+16.6481+30.1252+16.632+30.0967+16.6174C30.0477+16.592+29.9963+16.5706+29.9431+16.5535C29.918+16.546+29.8925+16.5397+29.8668+16.5346C29.7997+16.5182+29.7308+16.5092+29.6614+16.5078L29.6545+16.5078C29.6379+16.5078+29.6216+16.5111+29.6047+16.5118C29.5765+16.5118+29.5486+16.5118+29.52+16.5167C29.5134+16.4717+29.51+16.4264+29.5099+16.381C29.5099+15.8322+29.9955+15.3874+30.5946+15.3874ZM28.7944+17.7415C28.826+17.6577+28.924+17.6116+29.0168+17.6368C29.1231+17.6646+29.2374+17.6462+29.3272+17.587C29.4169+17.5278+29.4721+17.4343+29.477+17.3331C29.4777+17.2845+29.5015+17.2386+29.5421+17.2073C29.5965+17.1724+29.667+17.1666+29.7274+17.1919C29.7877+17.2173+29.8289+17.27+29.8357+17.3305C29.8397+17.4323+29.8947+17.5267+29.9847+17.5865C30.0747+17.6463+30.1898+17.6649+30.2967+17.6368C30.3871+17.6122+30.4827+17.6572+30.5136+17.7388C30.5147+17.7452+30.5161+17.7515+30.5179+17.7577C30.5383+17.8378+30.4904+17.9192+30.4062+17.9478C30.3015+17.9826+30.2202+18.0598+30.1858+18.1568C30.1514+18.2539+30.1677+18.36+30.2301+18.4446C30.2758+18.5181+30.2537+18.6112+30.1788+18.6607C30.104+18.7102+30.0005+18.7001+29.9387+18.6373C29.8701+18.558+29.7657+18.5118+29.6553+18.5118L29.6553+18.5118C29.5443+18.5122+29.4396+18.5594+29.3714+18.6396C29.3086+18.7032+29.2033+18.7123+29.1286+18.6607C29.0539+18.609+29.0345+18.5137+29.084+18.4409C29.1444+18.3567+29.1597+18.2519+29.1255+18.1561C29.0913+18.0603+29.0114+17.984+28.9083+17.9488C28.815+17.9197+28.7643+17.8275+28.7944+17.7415Z" opacity="1" fill="#000000"/>
<path d="M36.5121+17.6357C36.4956+17.6357+36.4792+17.6357+36.4628+17.6357" opacity="1" fill="#f2bd5b"/>
</g>
<g id="Layer 1" vectornator:layerName="Layer 1">
<g opacity="1">
<path d="M2.76889+28.1706C2.78028+28.374+2.8283+28.5392+2.91293+28.6662C3.07406+28.9038+3.35808+29.0226+3.76498+29.0226C3.94727+29.0226+4.11329+28.9966+4.26303+28.9445C4.55274+28.8436+4.6976+28.6629+4.6976+28.4025C4.6976+28.2072+4.63656+28.068+4.51449+27.985C4.3908+27.9036+4.19711+27.8328+3.93344+27.7726L3.4476+27.6628C3.13022+27.5911+2.90561+27.5122+2.77377+27.4259C2.54591+27.2762+2.43197+27.0524+2.43197+26.7546C2.43197+26.4323+2.54346+26.1678+2.76645+25.9611C2.98943+25.7544+3.30518+25.651+3.71371+25.651C4.08969+25.651+4.40911+25.7418+4.67196+25.9233C4.93482+26.1047+5.06625+26.3949+5.06625+26.7936L4.60971+26.7936C4.58529+26.6016+4.53321+26.4543+4.45346+26.3517C4.30535+26.1645+4.05388+26.071+3.69906+26.071C3.4126+26.071+3.20671+26.1312+3.08139+26.2516C2.95606+26.3721+2.8934+26.512+2.8934+26.6715C2.8934+26.8473+2.96664+26.9759+3.11313+27.0573C3.20915+27.1094+3.42644+27.1745+3.76498+27.2526L4.26791+27.3673C4.51042+27.4227+4.6976+27.4984+4.82943+27.5944C5.0573+27.762+5.17123+28.0054+5.17123+28.3244C5.17123+28.7215+5.02678+29.0055+4.73788+29.1764C4.44898+29.3473+4.11329+29.4328+3.7308+29.4328C3.28484+29.4328+2.93572+29.3188+2.68344+29.091C2.43116+28.8647+2.30746+28.5579+2.31234+28.1706L2.76889+28.1706Z" opacity="1" fill="#000000"/>
<path d="M10.1789+27.8581L9.63451+26.2736L9.05589+27.8581L10.1789+27.8581ZM9.3806+25.7414L9.92992+25.7414L11.2312+29.3278L10.699+29.3278L10.3352+28.2536L8.91673+28.2536L8.52855+29.3278L8.0305+29.3278L9.3806+25.7414Z" opacity="1" fill="#000000"/>
<path d="M14.2247+25.7414L14.7985+25.7414L16.61+28.6466L16.61+25.7414L17.0714+25.7414L17.0714+29.3278L16.527+29.3278L14.6886+26.425L14.6886+29.3278L14.2247+29.3278L14.2247+25.7414Z" opacity="1" fill="#000000"/>
<path d="M21.9375+25.6486C22.2744+25.6486+22.5658+25.7137+22.8115+25.8439C23.168+26.0311+23.3861+26.359+23.4658+26.8278L22.9849+26.8278C22.9263+26.5658+22.805+26.3749+22.6211+26.2553C22.4372+26.1357+22.2053+26.0758+21.9253+26.0758C21.5933+26.0758+21.3137+26.2004+21.0867+26.4494C20.8596+26.6984+20.7461+27.0695+20.7461+27.5627C20.7461+27.9891+20.8397+28.3362+21.0269+28.6039C21.214+28.8717+21.5192+29.0055+21.9424+29.0055C22.2663+29.0055+22.5344+28.9115+22.7468+28.7235C22.9592+28.5356+23.0679+28.2316+23.0728+27.8117L21.9497+27.8117L21.9497+27.4088L23.5244+27.4088L23.5244+29.3278L23.2119+29.3278L23.0947+28.8664C22.9304+29.047+22.7847+29.1724+22.6577+29.2423C22.4445+29.3628+22.1735+29.423+21.8447+29.423C21.4199+29.423+21.0545+29.2855+20.7486+29.0104C20.4149+28.6654+20.2481+28.1917+20.2481+27.5895C20.2481+26.9889+20.4108+26.5112+20.7363+26.1564C21.0456+25.8179+21.446+25.6486+21.9375+25.6486Z" opacity="1" fill="#000000"/>
<path d="M26.8744+25.7414L29.4892+25.7414L29.4892+26.1808L27.3481+26.1808L27.3481+27.2697L29.328+27.2697L29.328+27.6847L27.3481+27.6847L27.3481+28.9005L29.5258+28.9005L29.5258+29.3278L26.8744+29.3278L26.8744+25.7414Z" opacity="1" fill="#000000"/>
<path d="M32.7147+25.7414L33.2005+25.7414L33.2005+28.9005L35.0169+28.9005L35.0169+29.3278L32.7147+29.3278L32.7147+25.7414Z" opacity="1" fill="#000000"/>
<path d="M39.5949+25.6437C40.2281+25.6437+40.6968+25.8472+41.0012+26.2541C41.2388+26.5714+41.3576+26.9775+41.3576+27.4723C41.3576+28.0078+41.2217+28.453+40.9499+28.8078C40.6309+29.2244+40.176+29.4328+39.5852+29.4328C39.0334+29.4328+38.5996+29.2505+38.2839+28.8859C38.0023+28.5343+37.8615+28.09+37.8615+27.5529C37.8615+27.0679+37.982+26.6528+38.2228+26.3078C38.5321+25.8651+38.9894+25.6437+39.5949+25.6437ZM39.6437+28.9982C40.0718+28.9982+40.3815+28.8448+40.5727+28.538C40.7639+28.2312+40.8596+27.8784+40.8596+27.4796C40.8596+27.0581+40.7493+26.7187+40.5288+26.4616C40.3082+26.2044+40.0067+26.0758+39.6242+26.0758C39.2531+26.0758+38.9504+26.2032+38.716+26.4579C38.4816+26.7126+38.3644+27.0882+38.3644+27.5846C38.3644+27.9818+38.465+28.3166+38.666+28.5893C38.867+28.8619+39.1929+28.9982+39.6437+28.9982Z" opacity="1" fill="#000000"/>
<path d="M44.7711+25.7414L45.8014+28.7956L46.8194+25.7414L47.3639+25.7414L46.0553+29.3278L45.5401+29.3278L44.234+25.7414L44.7711+25.7414Z" opacity="1" fill="#000000"/>
<path d="M51.7221+27.2575C51.9272+27.2575+52.0867+27.229+52.2007+27.172C52.3797+27.0825+52.4692+26.9214+52.4692+26.6886C52.4692+26.4543+52.374+26.2964+52.1836+26.215C52.0762+26.1694+51.9166+26.1466+51.7051+26.1466L50.8384+26.1466L50.8384+27.2575L51.7221+27.2575ZM51.8857+28.9128C52.1836+28.9128+52.396+28.8265+52.5229+28.654C52.6027+28.5449+52.6426+28.4131+52.6426+28.2585C52.6426+27.998+52.5262+27.8206+52.2934+27.7262C52.1697+27.6758+52.0062+27.6505+51.8027+27.6505L50.8384+27.6505L50.8384+28.9128L51.8857+28.9128ZM50.3623+25.7414L51.9028+25.7414C52.3227+25.7414+52.6214+25.8667+52.7988+26.1173C52.903+26.2655+52.9551+26.4364+52.9551+26.63C52.9551+26.8563+52.8908+27.0418+52.7622+27.1867C52.6955+27.2632+52.5994+27.3332+52.4741+27.3966C52.658+27.4666+52.7956+27.5456+52.8867+27.6335C53.0478+27.7897+53.1284+28.0054+53.1284+28.2804C53.1284+28.5116+53.056+28.7207+52.9111+28.9079C52.6946+29.1878+52.3504+29.3278+51.8784+29.3278L50.3623+29.3278L50.3623+25.7414Z" opacity="1" fill="#000000"/>
<path d="M58.1019+27.8581L57.5575+26.2736L56.9789+27.8581L58.1019+27.8581ZM57.3036+25.7414L57.8529+25.7414L59.1542+29.3278L58.6219+29.3278L58.2582+28.2536L56.8397+28.2536L56.4515+29.3278L55.9535+29.3278L57.3036+25.7414Z" opacity="1" fill="#000000"/>
<path d="M63.8152+27.3844C64.0431+27.3844+64.2233+27.3389+64.356+27.2477C64.4886+27.1566+64.5549+26.9922+64.5549+26.7546C64.5549+26.499+64.4622+26.3249+64.2766+26.2321C64.1773+26.1833+64.0447+26.1588+63.8787+26.1588L62.6922+26.1588L62.6922+27.3844L63.8152+27.3844ZM62.2063+25.7414L63.8665+25.7414C64.1399+25.7414+64.3653+25.7812+64.5427+25.861C64.8797+26.014+65.0481+26.2964+65.0481+26.7082C65.0481+26.923+65.0038+27.0988+64.9151+27.2355C64.8264+27.3722+64.7022+27.4821+64.5427+27.5651C64.6827+27.6221+64.7881+27.6969+64.8589+27.7897C64.9297+27.8825+64.9692+28.033+64.9773+28.2414L64.9944+28.7223C64.9993+28.859+65.0107+28.9608+65.0286+29.0275C65.0579+29.1414+65.11+29.2147+65.1848+29.2472L65.1848+29.3278L64.5891+29.3278C64.5729+29.2969+64.5598+29.257+64.5501+29.2082C64.5403+29.1593+64.5322+29.0649+64.5257+28.925L64.4964+28.3268C64.485+28.0924+64.3979+27.9354+64.2351+27.8556C64.1424+27.8117+63.9967+27.7897+63.7981+27.7897L62.6922+27.7897L62.6922+29.3278L62.2063+29.3278L62.2063+25.7414Z" opacity="1" fill="#000000"/>
</g>
</g>
<g id="Layer 2" vectornator:layerName="Layer 2">
<g opacity="1">
<path d="M33.155+32.7037C33.165+32.7737+33.1717+32.8329+33.175+32.8812C33.1783+32.9295+33.18+32.9804+33.18+33.0337C33.18+33.1837+33.1592+33.3254+33.1175+33.4587C33.0758+33.592+33.0167+33.7104+32.94+33.8137C32.8633+33.917+32.7692+33.9987+32.6575+34.0587C32.5458+34.1187+32.42+34.1487+32.28+34.1487C32.1567+34.1487+32.0475+34.1262+31.9525+34.0812C31.8575+34.0362+31.7775+33.9762+31.7125+33.9012C31.6475+33.8262+31.5983+33.7395+31.565+33.6412C31.5317+33.5429+31.515+33.4387+31.515+33.3287C31.515+33.182+31.5433+33.032+31.6+32.8787C31.6567+32.7254+31.7367+32.577+31.84+32.4337C31.9433+32.2904+32.0692+32.1554+32.2175+32.0287C32.3658+31.902+32.5325+31.7912+32.7175+31.6962C32.9025+31.6012+33.1025+31.5262+33.3175+31.4712C33.5325+31.4162+33.76+31.3887+34+31.3887C34.1933+31.3887+34.3717+31.407+34.535+31.4437C34.6983+31.4804+34.84+31.532+34.96+31.5987C35.0933+31.5254+35.2158+31.4712+35.3275+31.4362C35.4392+31.4012+35.5483+31.3754+35.655+31.3587L35.655+31.4187C35.5483+31.4354+35.445+31.4595+35.345+31.4912C35.245+31.5229+35.1417+31.5737+35.035+31.6437C35.1417+31.7304+35.2225+31.8212+35.2775+31.9162C35.3325+32.0112+35.36+32.1287+35.36+32.2687C35.36+32.3954+35.3317+32.5104+35.275+32.6137C35.2183+32.717+35.145+32.8062+35.055+32.8812C34.965+32.9562+34.8633+33.0187+34.75+33.0687C34.6367+33.1187+34.5233+33.1537+34.41+33.1737L34.41+33.1837C34.5067+33.187+34.5967+33.2029+34.68+33.2312C34.7633+33.2595+34.8358+33.2995+34.8975+33.3512C34.9592+33.4029+35.0075+33.4679+35.0425+33.5462C35.0775+33.6245+35.095+33.717+35.095+33.8237C35.095+33.987+35.0567+34.1395+34.98+34.2812C34.9033+34.4229+34.8067+34.5462+34.69+34.6512C34.5733+34.7562+34.4433+34.8387+34.3+34.8987C34.1567+34.9587+34.0167+34.9887+33.88+34.9887C33.69+34.9887+33.5375+34.9479+33.4225+34.8662C33.3075+34.7845+33.25+34.6804+33.25+34.5537C33.25+34.4704+33.2758+34.3987+33.3275+34.3387C33.3792+34.2787+33.4483+34.2487+33.535+34.2487C33.5883+34.2487+33.635+34.2687+33.675+34.3087C33.6183+34.3187+33.5783+34.3512+33.555+34.4062C33.5317+34.4612+33.52+34.5304+33.52+34.6137C33.52+34.7037+33.5533+34.7787+33.62+34.8387C33.6867+34.8987+33.7717+34.9287+33.875+34.9287C34.0283+34.9287+34.1625+34.8962+34.2775+34.8312C34.3925+34.7662+34.4883+34.6804+34.565+34.5737C34.6417+34.467+34.6992+34.3454+34.7375+34.2087C34.7758+34.072+34.795+33.932+34.795+33.7887C34.795+33.682+34.7767+33.5929+34.74+33.5212C34.7033+33.4495+34.6533+33.392+34.59+33.3487C34.5267+33.3054+34.4525+33.2754+34.3675+33.2587C34.2825+33.242+34.1917+33.2337+34.095+33.2337L34.095+33.1737C34.245+33.1737+34.3808+33.1487+34.5025+33.0987C34.6242+33.0487+34.7283+32.9787+34.815+32.8887C34.9017+32.7987+34.9692+32.692+35.0175+32.5687C35.0658+32.4454+35.09+32.312+35.09+32.1687C35.09+32.092+35.075+32.017+35.045+31.9437C35.015+31.8704+34.9733+31.8054+34.92+31.7487C34.76+31.8887+34.6092+32.067+34.4675+32.2837C34.3258+32.5004+34.1842+32.7304+34.0425+32.9737C33.9008+33.217+33.7558+33.4604+33.6075+33.7037C33.4592+33.947+33.2992+34.167+33.1275+34.3637C32.9558+34.5604+32.7683+34.7204+32.565+34.8437C32.3617+34.967+32.135+35.0287+31.885+35.0287C31.7117+35.0287+31.575+34.992+31.475+34.9187C31.375+34.8454+31.325+34.757+31.325+34.6537C31.325+34.587+31.3442+34.5345+31.3825+34.4962C31.4208+34.4579+31.4683+34.4387+31.525+34.4387C31.5817+34.4387+31.6242+34.4562+31.6525+34.4912C31.6808+34.5262+31.695+34.5704+31.695+34.6237C31.695+34.6704+31.6792+34.7095+31.6475+34.7412C31.6158+34.7729+31.5767+34.7887+31.53+34.7887C31.5367+34.822+31.5533+34.8504+31.58+34.8737C31.6067+34.897+31.6375+34.9162+31.6725+34.9312C31.7075+34.9462+31.7433+34.9562+31.78+34.9612C31.8167+34.9662+31.8483+34.9687+31.875+34.9687C32.0417+34.9687+32.1883+34.937+32.315+34.8737C32.4417+34.8104+32.5608+34.7195+32.6725+34.6012C32.7842+34.4829+32.8942+34.3395+33.0025+34.1712C33.1108+34.0029+33.2283+33.8137+33.355+33.6037C33.4883+33.387+33.6125+33.1829+33.7275+32.9912C33.8425+32.7995+33.9583+32.622+34.075+32.4587C34.1917+32.2954+34.3125+32.147+34.4375+32.0137C34.5625+31.8804+34.7+31.767+34.85+31.6737C34.7433+31.587+34.6133+31.5279+34.46+31.4962C34.3067+31.4645+34.145+31.4487+33.975+31.4487C33.665+31.4487+33.3717+31.5012+33.095+31.6062C32.8183+31.7112+32.5767+31.8495+32.37+32.0212C32.1633+32.1929+31.9992+32.3895+31.8775+32.6112C31.7558+32.8329+31.695+33.062+31.695+33.2987C31.695+33.3887+31.7067+33.4812+31.73+33.5762C31.7533+33.6712+31.7892+33.7562+31.8375+33.8312C31.8858+33.9062+31.9467+33.9679+32.02+34.0162C32.0933+34.0645+32.18+34.0887+32.28+34.0887C32.4033+34.0887+32.5167+34.062+32.62+34.0087C32.7233+33.9554+32.8117+33.882+32.885+33.7887C32.9583+33.6954+33.0158+33.5829+33.0575+33.4512C33.0992+33.3195+33.12+33.177+33.12+33.0237C33.12+32.9704+33.1183+32.9179+33.115+32.8662C33.1117+32.8145+33.1067+32.762+33.1+32.7087L33.155+32.7037Z" opacity="1" fill="#000000"/>
<path d="M37.215+33.2287L37.54+33.2287C37.4167+33.402+37.2983+33.5704+37.185+33.7337C37.0717+33.897+36.9708+34.0479+36.8825+34.1862C36.7942+34.3245+36.7233+34.4462+36.67+34.5512C36.6167+34.6562+36.59+34.7387+36.59+34.7987C36.59+34.8854+36.635+34.9287+36.725+34.9287C36.795+34.9287+36.8842+34.8945+36.9925+34.8262C37.1008+34.7579+37.2183+34.6637+37.345+34.5437C37.4717+34.4237+37.6017+34.2837+37.735+34.1237C37.8683+33.9637+37.995+33.7937+38.115+33.6137L38.145+33.6237C38.055+33.7604+37.9492+33.9079+37.8275+34.0662C37.7058+34.2245+37.5783+34.372+37.445+34.5087C37.3117+34.6454+37.1783+34.7595+37.045+34.8512C36.9117+34.9429+36.7867+34.9887+36.67+34.9887C36.5733+34.9887+36.5025+34.9645+36.4575+34.9162C36.4125+34.8679+36.39+34.8104+36.39+34.7437C36.39+34.697+36.3975+34.6512+36.4125+34.6062C36.4275+34.5612+36.4433+34.5154+36.46+34.4687L36.45+34.4637C36.4067+34.5104+36.3525+34.5645+36.2875+34.6262C36.2225+34.6879+36.1525+34.7454+36.0775+34.7987C36.0025+34.852+35.925+34.897+35.845+34.9337C35.765+34.9704+35.6883+34.9887+35.615+34.9887C35.4917+34.9887+35.405+34.9504+35.355+34.8737C35.305+34.797+35.28+34.7104+35.28+34.6137C35.28+34.477+35.3233+34.3262+35.41+34.1612C35.4967+33.9962+35.6067+33.8412+35.74+33.6962C35.8733+33.5512+36.0183+33.4304+36.175+33.3337C36.3317+33.237+36.48+33.1887+36.62+33.1887C36.6867+33.1887+36.745+33.1979+36.795+33.2162C36.845+33.2345+36.8867+33.2595+36.92+33.2912C36.9533+33.3229+36.9792+33.3587+36.9975+33.3987C37.0158+33.4387+37.03+33.4804+37.04+33.5237L37.05+33.5237L37.215+33.2287ZM35.58+34.6287C35.58+34.7054+35.5958+34.7645+35.6275+34.8062C35.6592+34.8479+35.7033+34.8687+35.76+34.8687C35.8167+34.8687+35.8833+34.8479+35.96+34.8062C36.0367+34.7645+36.1167+34.7087+36.2+34.6387C36.2833+34.5687+36.3658+34.4879+36.4475+34.3962C36.5292+34.3045+36.6017+34.207+36.665+34.1037C36.7283+34.0004+36.78+33.8954+36.82+33.7887C36.86+33.682+36.88+33.5804+36.88+33.4837C36.88+33.407+36.8583+33.3487+36.815+33.3087C36.7717+33.2687+36.7183+33.2487+36.655+33.2487C36.555+33.2487+36.4433+33.292+36.32+33.3787C36.1967+33.4654+36.08+33.5762+35.97+33.7112C35.86+33.8462+35.7675+33.9954+35.6925+34.1587C35.6175+34.322+35.58+34.4787+35.58+34.6287Z" opacity="1" fill="#000000"/>
<path d="M38.61+33.2287L37.975+34.1537L37.985+34.1637C38.0317+34.107+38.0908+34.0412+38.1625+33.9662C38.2342+33.8912+38.3125+33.8145+38.3975+33.7362C38.4825+33.6579+38.5717+33.5804+38.665+33.5037C38.7583+33.427+38.85+33.3587+38.94+33.2987C38.9567+33.2654+38.975+33.2387+38.995+33.2187C39.015+33.1987+39.055+33.1887+39.115+33.1887C39.1517+33.1887+39.1842+33.1895+39.2125+33.1912C39.2408+33.1929+39.27+33.1954+39.3+33.1987C39.2433+33.2554+39.1883+33.3245+39.135+33.4062C39.0817+33.4879+39.055+33.577+39.055+33.6737C39.055+33.7504+39.0742+33.8104+39.1125+33.8537C39.1508+33.897+39.1983+33.9187+39.255+33.9187C39.305+33.9187+39.3542+33.9087+39.4025+33.8887C39.4508+33.8687+39.4967+33.8437+39.54+33.8137C39.5833+33.7837+39.625+33.752+39.665+33.7187C39.705+33.6854+39.74+33.6554+39.77+33.6287L39.8+33.6487C39.7667+33.682+39.7283+33.7179+39.685+33.7562C39.6417+33.7945+39.595+33.8304+39.545+33.8637C39.495+33.897+39.4417+33.9245+39.385+33.9462C39.3283+33.9679+39.27+33.9787+39.21+33.9787C39.1033+33.9787+39.0175+33.9462+38.9525+33.8812C38.8875+33.8162+38.855+33.7254+38.855+33.6087C38.855+33.5287+38.8733+33.457+38.91+33.3937L38.9+33.3837C38.7633+33.477+38.6133+33.5995+38.45+33.7512C38.2867+33.9029+38.1133+34.082+37.93+34.2887C37.8633+34.362+37.7942+34.4587+37.7225+34.5787C37.6508+34.6987+37.5883+34.822+37.535+34.9487L37.21+34.9487C37.39+34.662+37.57+34.377+37.75+34.0937C37.93+33.8104+38.115+33.522+38.305+33.2287L38.61+33.2287Z" opacity="1" fill="#000000"/>
</g>
</g>
</svg>
